<?xml version="1.0" encoding="UTF-8" standalone="no"?>
<!-- Created with Inkscape (http://www.inkscape.org/) -->

<svg
   width="200mm"
   height="200mm"
   viewBox="0 0 200 200"
   version="1.1"
   id="svg1"
   xml:space="preserve"
   inkscape:version="1.4.3 (0d15f75, 2025-12-25)"
   sodipodi:docname="datura-logo.svg"
   xmlns:inkscape="http://www.inkscape.org/namespaces/inkscape"
   xmlns:sodipodi="http://sodipodi.sourceforge.net/DTD/sodipodi-0.dtd"
   xmlns="http://www.w3.org/2000/svg"
   xmlns:svg="http://www.w3.org/2000/svg"
   xmlns:rdf="http://www.w3.org/1999/02/22-rdf-syntax-ns#"
   xmlns:cc="http://creativecommons.org/ns#"
   xmlns:dc="http://purl.org/dc/elements/1.1/"><title
     id="title2">Datura Logo</title><sodipodi:namedview
     id="namedview1"
     pagecolor="#ffffff"
     bordercolor="#000000"
     borderopacity="0.25"
     inkscape:showpageshadow="2"
     inkscape:pageopacity="0.0"
     inkscape:pagecheckerboard="0"
     inkscape:deskcolor="#d1d1d1"
     inkscape:document-units="mm"
     inkscape:zoom="0.89887065"
     inkscape:cx="396.60879"
     inkscape:cy="560.70359"
     inkscape:window-width="3440"
     inkscape:window-height="1387"
     inkscape:window-x="0"
     inkscape:window-y="25"
     inkscape:window-maximized="0"
     inkscape:current-layer="layer1"
     showgrid="true"
     showguides="true" /><defs
     id="defs1" /><g
     inkscape:label="Layer 1"
     inkscape:groupmode="layer"
     id="layer1"><path
       style="fill:#61cf5a;stroke-width:3.40636;fill-opacity:1"
       d="m 99.91861,197.19627 c -0.0358,-1.68141 -1.04888,-9.10697 -1.736999,-12.73133 -1.181154,-6.22119 -2.54104,-9.66274 -6.22245,-15.74745 -3.906852,-6.45725 -4.124381,-7.5073 -4.125812,-19.91584 -0.0016,-13.72928 -0.602346,-21.66051 -2.268633,-29.9506 C 83.035769,106.26907 78.384287,96.174021 72.542284,90.588614 68.479829,86.704583 64.513433,85.407205 59.766811,86.4099 c -0.937701,0.198249 -1.729542,0.338251 -1.759654,0.311341 -0.03065,-0.02725 -0.189054,-0.92905 -0.35307,-2.004947 -0.337569,-2.21345 -1.759893,-6.827429 -2.852073,-9.252175 C 49.440647,63.561594 37.701696,54.781131 22.982149,51.663668 l -2.8175,-0.596725 2.423895,-0.627894 c 8.377321,-2.170054 16.370608,-5.932374 22.320627,-10.505952 0.844708,-0.649286 2.792225,-2.364557 4.327878,-3.811747 6.594433,-6.214523 10.168723,-8.016485 19.841208,-10.002868 2.452474,-0.503629 5.580328,-1.284775 6.950841,-1.735811 C 86.824795,20.829603 95.868082,12.905124 99.35524,3.9423521 l 0.72242,-1.8567705 0.97006,2.3403707 c 2.95365,7.1258947 9.77566,13.8582507 18.12243,17.8842567 3.58301,1.72825 6.65861,2.699641 12.03762,3.801972 9.25245,1.89608 12.91061,3.694908 18.93822,9.31233 3.39041,3.159737 6.78934,5.829025 9.68625,7.607042 4.6232,2.837529 13.67454,6.551478 18.55898,7.615147 0.83041,0.180878 1.47956,0.358894 1.44263,0.395648 -0.0371,0.03679 -1.46232,0.379707 -3.1674,0.762037 -14.19841,3.183717 -24.92186,11.015611 -30.55764,22.317834 -1.86427,3.73868 -3.71917,9.769906 -3.71917,12.092906 0,0.471984 -0.11002,0.624419 -0.37708,0.521955 -2.19734,-0.843175 -5.92274,-0.793408 -8.61982,0.115135 -7.31634,2.464703 -14.27501,13.414815 -17.87604,28.129625 -2.31517,9.46048 -2.9742,16.26137 -3.1811,32.82733 -0.15601,12.49247 -0.28375,13.68623 -1.8008,16.85203 -0.48708,1.01635 -1.61336,2.99157 -2.50289,4.38933 -4.18011,6.56847 -5.89722,12.22323 -7.35889,24.23408 -0.56689,4.65816 -0.7215,5.45974 -0.75441,3.91158 z m 1.02317,-53.05915 c 0.92943,-20.732 1.04926,-28.10564 1.05192,-64.721253 0.002,-31.443769 0.0484,-35.606507 0.39524,-35.606507 0.63351,0 2.53391,-1.878026 3.05237,-3.016397 1.3546,-2.974328 -0.1257,-6.580161 -3.26067,-7.943282 -1.12584,-0.489494 -3.464947,-0.396398 -4.588261,0.182581 -3.821965,1.969997 -4.578268,6.523342 -1.58307,9.531155 0.682361,0.685257 1.423312,1.245909 1.646599,1.245909 0.364242,0 0.406276,3.453943 0.409206,33.639302 0.0018,18.501628 0.06199,35.350762 0.13421,37.442582 0.07188,2.0918 0.253092,7.69836 0.402461,12.45901 0.149539,4.76063 0.501925,13.25897 0.783325,18.88521 0.28137,5.62621 0.52397,10.5246 0.53906,10.88522 0.0272,0.61417 0.0416,0.60585 0.25207,-0.13114 0.12365,-0.43278 0.46813,-6.21636 0.76561,-12.85242 z M 98.303933,40.157405 C 97.736332,39.58977 97.53723,39.141868 97.53723,38.432324 c 0,-0.709543 0.199272,-1.157479 0.766703,-1.725115 2.050967,-2.050933 5.148197,0.312363 3.925697,2.995311 -0.6358,1.395415 -2.74117,1.639377 -3.925697,0.454885 z M 106.853,109.5142 c 1.92541,-4.91101 5.92352,-11.652638 9.64436,-16.262291 4.93028,-6.108042 14.05939,-13.592897 20.61551,-16.90241 0.91173,-0.460233 1.59818,-0.896349 1.52542,-0.969143 -0.0729,-0.0729 -1.22386,0.05621 -2.558,0.286135 -6.38661,1.102126 -11.38179,3.853576 -17.34608,9.554488 -3.19166,3.050767 -5.55686,5.796699 -7.42556,8.620939 -0.69204,1.045888 -1.29993,1.901634 -1.35089,1.901634 -0.0511,0 -0.0927,-3.68949 -0.0927,-8.198824 V 79.3459 l 3.80326,-3.36514 3.80327,-3.365173 v -6.616915 -6.616916 l 0.89196,-0.425351 c 1.0576,-0.504345 2.06642,-1.776041 2.51224,-3.16689 0.74501,-2.324225 -0.54596,-5.12895 -2.90092,-6.302475 -2.15979,-1.076272 -4.30082,-0.832581 -6.16172,0.701335 -1.74504,1.438402 -2.45237,4.234067 -1.59213,6.292904 0.41942,1.003818 1.84086,2.491714 2.68823,2.813888 0.58787,0.223457 0.59611,0.285453 0.51293,3.845981 -0.0463,1.990368 -0.10047,4.622119 -0.1199,5.848338 l -0.0354,2.229495 -3.65764,3.278686 -3.65764,3.278687 -0.0104,16.896171 c -0.007,9.292895 0.0351,16.846965 0.0906,16.786875 0.0555,-0.0603 0.42517,-0.93552 0.8211,-1.94537 z m 7.48963,-53.18413 c -1.56457,-0.795555 -1.48391,-3.345962 0.12705,-4.019092 1.11947,-0.467727 2.05908,-0.257861 2.74376,0.612395 0.75788,0.963488 0.66717,2.058291 -0.24628,2.971705 -0.82254,0.822567 -1.60674,0.952519 -2.6246,0.434992 z M 94.1274,94.582702 V 77.946331 l -3.665604,-3.363573 -3.665614,-3.363607 -0.0068,-5.907541 -0.0068,-5.907576 0.9547,-0.514156 c 1.895467,-1.020748 2.902182,-3.429757 2.407102,-5.759977 -0.217326,-1.022283 -0.554487,-1.595265 -1.493313,-2.536816 -2.205037,-2.211475 -5.133005,-2.377842 -7.500694,-0.426169 -2.885729,2.378658 -2.670618,6.743018 0.427292,8.668768 l 1.270504,0.789764 v 6.59123 6.591232 l 3.67212,3.226501 3.67212,3.226535 -5.45e-4,8.306944 -5.11e-4,8.306978 -1.205169,-1.836054 C 84.792291,87.649541 77.522308,80.943379 71.651215,78.048215 69.152039,76.815829 65.593588,75.75509 62.979313,75.463199 c -0.757369,-0.08448 -1.377054,-0.06677 -1.377054,0.03986 0,0.106619 0.796712,0.585042 1.770487,1.063431 2.200847,1.081211 7.595834,4.663779 10.557355,7.010656 2.862736,2.2686 8.047074,7.481142 10.232014,10.287706 3.855075,4.951875 7.631805,11.415928 9.181663,15.714888 0.324966,0.90163 0.634219,1.63935 0.687017,1.63935 0.0528,0 0.09606,-7.4864 0.09606,-16.636415 z M 83.714928,56.406338 c -0.317131,-0.133188 -0.766431,-0.609465 -0.998641,-1.058525 -0.841303,-1.62691 0.693908,-3.718243 2.41279,-3.286861 0.993906,0.249345 1.916382,1.315024 1.916382,2.213654 0,1.548053 -1.87009,2.745013 -3.330531,2.131732 z"
       id="path2" /></g><metadata
     id="metadata2"><rdf:RDF><cc:Work
         rdf:about=""><dc:title>Datura Logo</dc:title><dc:date>2026-04-22</dc:date><dc:creator><cc:Agent><dc:title>Joe Lopes</dc:title></cc:Agent></dc:creator><cc:license
           rdf:resource="http://creativecommons.org/licenses/by-sa/4.0/" /></cc:Work><cc:License
         rdf:about="http://creativecommons.org/licenses/by-sa/4.0/"><cc:permits
           rdf:resource="http://creativecommons.org/ns#Reproduction" /><cc:permits
           rdf:resource="http://creativecommons.org/ns#Distribution" /><cc:requires
           rdf:resource="http://creativecommons.org/ns#Notice" /><cc:requires
           rdf:resource="http://creativecommons.org/ns#Attribution" /><cc:permits
           rdf:resource="http://creativecommons.org/ns#DerivativeWorks" /><cc:requires
           rdf:resource="http://creativecommons.org/ns#ShareAlike" /></cc:License></rdf:RDF></metadata></svg>
